# xmcd
#
# Track frame offsets: 
#        150
#        14944
#        28739
#        41801
#        56013
#        69350
#        82385
#        95647
#        109301
#        120363
#        133882
#        145643
#        160300
#        173735
#        187444
#        202038
#        216196
#        230822
#        243479
#        255307
#        267304
#        278239
#
# Disc length: 3853 seconds
#
# Revision: 0
# Processed by: cddbd v1.5.2PL0 Copyright (c) Steve Scherf et al.
# Submitted via: ExactAudioCopyFreeDBPlugin 1.0
#
DISCID=5f0f0b16
DTITLE=Various Artist - Vocalist's Showcase Yol. 10
DYEAR=1900
DGENRE=Blues
TTITLE0=Margaret Young - Oh, By Jingo
TTITLE1=Margaret Young - Lovin' Sam
TTITLE2=Margaret Young - He Loves It
TTITLE3=Margaret Young - Don't Think That You'll Be Missed
TTITLE4=Margaret Young - Woah, Tillie Take Your Time
TTITLE5=Margaret Young - Too Tired
TTITLE6=Margaret Young - Doodle Doo Doo
TTITLE7=Margaret Young - Yes Sir, That's My Baby
TTITLE8=Margaret Young - Red Hot Henry Brown
TTITLE9=Miss Patricola - I've Got My Habbits On
TTITLE10=Miss Patricola - Happy Hottentot
TTITLE11=Miss Patricola - Hot Lips
TTITLE12=Miss Patricola - All For The Love Of Mike
TTITLE13=Miss Patricola - Lovin' Sam
TTITLE14=Miss Patricola - Away Down East In Main
TTITLE15=Maggie With Billy Murray\\ - When You And I Were Young
TTITLE16=Miss Patricola - Come On Home
TTITLE17=Ester Walker - Blues My Naughty Sweetie Gives To Me
TTITLE18=Ester Walker - Sweet Kisses
TTITLE19=Ester Walker - How Sorry You'll Be
TTITLE20=Ester Walker - Slow and Easy
TTITLE21=Ester Walker - What'cha Gonna Do When There Ain't No Jazz
EXTD=
EXTT0=
EXTT1=
EXTT2=
EXTT3=
EXTT4=
EXTT5=
EXTT6=
EXTT7=
EXTT8=
EXTT9=
EXTT10=
EXTT11=
EXTT12=
EXTT13=
EXTT14=
EXTT15=
EXTT16=
EXTT17=
EXTT18=
EXTT19=
EXTT20=
EXTT21=
PLAYORDER=
